<svg id="Capa_1" enable-background="new 0 0 512 512" height="512" viewBox="0 0 512 512" width="512" xmlns="http://www.w3.org/2000/svg"><g id="_x3C_Group_x3E__55_"><path d="m233.5 100.624c0-45.563-36.937-82.5-82.5-82.5-20.211 0-38.725 7.268-53.07 19.333-17.994 15.134-28.43 37.815-28.43 63.167 0 45.563 35.937 81.5 81.5 81.5 31.401 0 58.705-16.543 72.644-42.363 6.287-11.645 9.856-24.974 9.856-39.137z" fill="#f5fcff"/><path d="m188.565 103.082c-18.847-.947-34.18-16.247-35.157-35.092-.288-5.556.651-10.86 2.566-15.671.765-1.922-.55-4.04-2.616-4.138-.781-.037-1.566-.056-2.357-.056-9.359 0-18.145 2.449-25.754 6.74-15.965 9.005-23.992 29.499-23.992 49.136 0 9.254 1.071 14.067 5.277 21.615.813 1.459 1.462.543 2.894-.318 3.02-1.817 7.254-2.437 11.149-1.872 6.617.959 13.105 7.479 14.383 14.043.61 3.13.328 5.682-.681 8.34-.6 1.582-.838 3.122.766 3.66 5.241 1.758 10.252 2.128 16.085 2.128 19.193 0 35.853-8.77 45.009-24.144 3.947-6.626 6.476-14.196 7.169-22.289.177-2.063-1.736-3.668-3.744-3.161-3.495.882-7.186 1.27-10.997 1.079z" fill="#a4ace3"/><path d="m438.5 100.624c0-45.563-36.936-82.5-82.5-82.5-21.025 0-40.212 7.865-54.782 20.812-17.004 15.113-26.718 37.15-26.718 61.688 0 45.563 35.936 81.5 81.5 81.5 30.686 0 57.459-15.753 71.671-40.612 6.891-12.052 10.829-26.01 10.829-40.888z" fill="#f5fcff"/><path d="m170.579 159.103c-45.239-.06-81.962-37.762-82.5-82.5-.17-14.162 3.573-27.489 9.86-39.135-17.994 15.134-29.439 37.804-29.439 63.156 0 45.563 36.937 82.5 82.5 82.5 31.401 0 58.7-17.546 72.64-43.365-14.345 12.065-32.849 19.371-53.061 19.344z" fill="#e6f7fe"/><path d="m375.579 159.103c-44.941-.316-82.324-37.465-82.5-82.5-.055-14.162 3.573-27.489 9.86-39.135-17.994 15.134-29.439 37.804-29.439 63.156 0 45.563 36.937 82.5 82.5 82.5 31.401 0 58.7-17.546 72.64-43.365-14.345 12.065-32.85 19.486-53.061 19.344z" fill="#e6f7fe"/><path d="m393.565 103.082c-18.847-.947-34.18-16.247-35.157-35.092-.288-5.556.651-10.86 2.566-15.671.765-1.922-.55-4.04-2.616-4.138-.781-.037-1.566-.056-2.357-.056-9.86 0-19.085 2.718-26.966 7.446-15.296 9.175-21.932 33.805-21.872 41.465.073 9.254.059 15.37 4.265 22.918.813 1.459 2.694 1.951 4.125 1.089 3.02-1.817 6.488-.735 10.383-.17 6.617.959 14.382 7.735 15.66 14.298.61 3.13-.222 6.082-1.231 8.74-.6 1.582.308 3.318 1.912 3.856 5.241 1.758 7.891 1.191 13.723 1.191 19.066 0 35.759-5.997 44.954-21.202 4.051-6.699 6.647-14.375 7.351-22.593.177-2.063-1.736-3.668-3.744-3.161-3.494.883-7.185 1.271-10.996 1.08z" fill="#a4ace3"/><path d="m171.002 133.124c-5.076 0-9.982-.726-14.624-2.073-2.653-.77-4.119-3.511-3.433-6.188.567-2.212.671-4.609.187-7.092-1.278-6.563-6.7-11.711-13.317-12.67-3.335-.483-6.5.071-9.236 1.381-2.323 1.112-5.302.056-6.463-2.243-3.587-7.098-5.613-15.118-5.613-23.615 0-9.359 2.46-18.139 6.752-25.748-15.965 9.005-26.752 26.112-26.752 45.748 0 9.254 2.404 17.943 6.61 25.491.813 1.459 2.694 1.951 4.125 1.089 3.02-1.817 6.683-2.669 10.578-2.104 6.617.959 12.039 6.107 13.317 12.67.61 3.13.286 6.123-.722 8.782-.6 1.582.308 3.318 1.912 3.856 5.241 1.758 10.848 2.716 16.68 2.716 19.636 0 36.742-10.787 45.746-26.752-7.61 4.292-16.389 6.752-25.747 6.752z" fill="#8a94db"/><path d="m376.002 133.124c-5.076 0-9.982-.726-14.624-2.073-2.653-.77-4.119-3.511-3.433-6.188.567-2.213.671-4.61.187-7.094-1.279-6.563-6.701-11.71-13.318-12.669-3.334-.483-6.499.072-9.235 1.382-2.377 1.138-5.274.109-6.463-2.243-3.587-7.099-5.614-15.118-5.614-23.615 0-9.359 2.46-18.139 6.752-25.748-15.965 9.005-26.752 26.112-26.752 45.748 0 9.254 2.404 17.943 6.61 25.491.813 1.459 2.694 1.951 4.125 1.089 3.019-1.817 6.682-2.668 10.577-2.104 6.617.958 12.04 6.106 13.318 12.669.61 3.131.287 6.124-.722 8.783-.6 1.582.308 3.318 1.912 3.856 5.241 1.758 10.848 2.716 16.68 2.716 19.636 0 36.742-10.787 45.746-26.752-7.609 4.292-16.388 6.752-25.746 6.752z" fill="#8a94db"/><g><path d="m286 227.152c-4.143 0-7.5-3.357-7.5-7.5 0-12.406-10.094-22.5-22.5-22.5-12.407 0-22.5 10.094-22.5 22.5 0 4.143-3.358 7.5-7.5 7.5s-7.5-3.357-7.5-7.5c0-20.678 16.822-37.5 37.5-37.5s37.5 16.822 37.5 37.5c0 4.143-3.357 7.5-7.5 7.5z" fill="#df646e"/></g><path d="m473.5 403.251v62.297 3.327c0 1.828-.196 3.611-.569 5.327-2.441 11.248-12.452 9.673-24.431 9.673h-385c-13.807 0-15-15.287-15-15.287v-65.333-60.057-65.094-.229c0-12.081-1.43-22.161 9.962-24.492 1.627-.333 3.312-.508 5.038-.508h385c13.807 0 25 11.193 25 25v2.132 63.099z" fill="#f5fcff"/><path d="m468.5 473.876h-400c-5.523 0-10-4.477-10-10v-15.287-65.333-60.057-65.094-.229c0-1.563.151-3.091.425-4.575-11.621 2.15-20.425 12.331-20.425 24.575v.229 65.094 60.057 65.333.287c0 13.807 11.193 25 25 25h385c12.244 0 22.425-8.804 24.575-20.425-1.484.274-3.012.425-4.575.425z" fill="#e6f7fe"/><g><path d="m54.5 380.726h-47c-4.142 0-7.5-3.357-7.5-7.5s3.358-7.5 7.5-7.5h47c4.142 0 7.5 3.357 7.5 7.5s-3.358 7.5-7.5 7.5z" fill="#df646e"/></g><g><path d="m504.5 380.726h-47c-4.143 0-7.5-3.357-7.5-7.5s3.357-7.5 7.5-7.5h47c4.143 0 7.5 3.357 7.5 7.5s-3.357 7.5-7.5 7.5z" fill="#df646e"/></g><g><g><g><path d="m115.029 429.3c-17.726 0-35.002-7.386-46.213-19.758-2.781-3.069-2.548-7.813.521-10.594s7.813-2.548 10.594.521c8.415 9.286 21.536 14.83 35.098 14.83 15.551 0 25.7-9.843 27.353-19.104 1.753-9.816-5.471-18.481-19.818-23.774-17.876-6.594-33.734-13.652-34.401-13.949-.361-.161-.709-.351-1.041-.566-9.967-6.498-15.101-17.904-13.397-29.768 1.841-12.825 11.332-23.307 24.77-27.354 28.246-8.507 51.628 10.775 52.61 11.601 3.171 2.665 3.581 7.396.916 10.567-2.66 3.163-7.376 3.579-10.547.932-.258-.212-18.326-14.859-38.652-8.736-7.904 2.381-13.23 8.034-14.248 15.123-.851 5.927 1.494 11.404 6.286 14.762 3.031 1.335 17.382 7.594 32.896 13.317 25.333 9.344 31.794 27.039 29.394 40.483-3.204 17.939-21.312 31.467-42.121 31.467z" fill="#df646e"/></g></g><g><g><path d="m411.267 433.144c-3.087 0-5.979-1.921-7.069-4.996l-26.454-74.633c-1.384-3.904.659-8.191 4.563-9.575 3.904-1.381 8.191.66 9.575 4.563l26.454 74.633c1.384 3.904-.659 8.191-4.563 9.575-.829.293-1.675.433-2.506.433z" fill="#df646e"/></g><g><path d="m401.131 464.069c-.813 0-1.639-.133-2.451-.414-3.914-1.354-5.99-5.624-4.637-9.539l36.496-105.559c1.353-3.913 5.619-5.992 9.539-4.637 3.914 1.354 5.99 5.624 4.637 9.539l-36.496 105.559c-1.073 3.103-3.979 5.051-7.088 5.051z" fill="#df646e"/></g></g><g><g><path d="m333.46 429.3c-4.143 0-7.5-3.357-7.5-7.5v-70.791c0-4.143 3.357-7.5 7.5-7.5s7.5 3.357 7.5 7.5v70.791c0 4.142-3.357 7.5-7.5 7.5z" fill="#df646e"/></g><g><path d="m333.46 387.115c-4.143 0-7.5-3.357-7.5-7.5 0-7.04 4.048-14.58 12.738-23.728 6.484-6.825 12.258-9.678 12.896-9.98 3.741-1.773 8.215-.186 9.993 3.556 1.769 3.723.201 8.172-3.502 9.967-.174.089-4.044 2.087-8.512 6.789-7.774 8.183-8.613 12.095-8.613 13.396 0 4.143-3.357 7.5-7.5 7.5z" fill="#df646e"/></g></g><g><g><path d="m282.107 429.3c-4.143 0-7.5-3.357-7.5-7.5v-70.791c0-4.143 3.357-7.5 7.5-7.5s7.5 3.357 7.5 7.5v70.791c0 4.142-3.357 7.5-7.5 7.5z" fill="#df646e"/></g><g><path d="m282.107 387.115c-4.143 0-7.5-3.357-7.5-7.5 0-7.04 4.048-14.58 12.738-23.728 6.484-6.825 12.258-9.678 12.896-9.98 3.741-1.773 8.215-.186 9.993 3.556 1.769 3.723.201 8.172-3.501 9.967-.168.085-4.041 2.083-8.513 6.789-7.774 8.183-8.613 12.095-8.613 13.396 0 4.143-3.357 7.5-7.5 7.5z" fill="#df646e"/></g></g><g><path d="m215.079 429.3c-23.653 0-42.896-19.243-42.896-42.896s19.243-42.896 42.896-42.896 42.895 19.243 42.895 42.896-19.243 42.896-42.895 42.896zm0-70.791c-15.382 0-27.896 12.514-27.896 27.896s12.514 27.896 27.896 27.896 27.896-12.514 27.896-27.896-12.515-27.896-27.896-27.896z" fill="#df646e"/></g></g></g></svg>